<?xml version="1.0" encoding="utf-8"?>
<!-- Svg Vector Icons : http://www.onlinewebfonts.com/icon -->
<!DOCTYPE svg PUBLIC "-//W3C//DTD SVG 1.1//EN" "http://www.w3.org/Graphics/SVG/1.1/DTD/svg11.dtd">
<svg version="1.1" xmlns="http://www.w3.org/2000/svg" xmlns:xlink="http://www.w3.org/1999/xlink" x="0px" y="0px" viewBox="0 0 1000 1000" enable-background="new 0 0 1000 1000" xml:space="preserve">
<metadata> Svg Vector Icons : http://www.onlinewebfonts.com/icon </metadata>
<g><path d="M500,10c-211.7,0-383.5,164.5-383.5,367.5C116.5,580.3,500,990,500,990s383.5-409.7,383.5-612.5C883.5,174.5,711.7,10,500,10L500,10L500,10L500,10z M500,530.7c-105.9,0-191.7-82.4-191.7-183.8c0-101.4,85.8-183.8,191.7-183.8c105.9,0,191.7,82.3,191.7,183.8C691.7,448.3,605.9,530.7,500,530.7L500,530.7L500,530.7L500,530.7z"/></g>
</svg>