<?xml version="1.0" encoding="UTF-8"?>
<!-- Created with Inkscape (http://www.inkscape.org/) -->
<svg width="151.22" height="102.27" version="1.1" viewBox="0 0 40.011 27.06" xmlns="http://www.w3.org/2000/svg" xmlns:cc="http://creativecommons.org/ns#" xmlns:dc="http://purl.org/dc/elements/1.1/" xmlns:rdf="http://www.w3.org/1999/02/22-rdf-syntax-ns#">
 <metadata>
  <rdf:RDF>
   <cc:Work rdf:about="">
    <dc:format>image/svg+xml</dc:format>
    <dc:type rdf:resource="http://purl.org/dc/dcmitype/StillImage"/>
    <dc:title/>
   </cc:Work>
  </rdf:RDF>
 </metadata>
 <g transform="translate(-328.68 -222.76)">
  <path d="m368.41 239.49c-0.1315-0.0264-0.20122-0.0619-0.15495-0.0791 0.0461-0.0175 0.17193-1e-3 0.27932 0.0348 0.2483 0.0839 0.18538 0.10631-0.12427 0.0445zm-0.63651-0.0354c-0.0134-0.0416-0.0689-0.0397-0.1222 5e-3 -0.0533 0.044-0.17994 0.0557-0.28117 0.0267-0.10118-0.0293-0.34387-0.0505-0.53914-0.0473-0.19526 3e-3 -0.47887-4e-3 -0.63023-0.0166-0.55463-0.0452-3.3682-0.18662-3.4944-0.17566-0.0716 6e-3 -0.53014 2e-3 -1.0191-9e-3 -0.48893-0.0109-1.3698-3e-3 -1.9576 0.0168-0.58773 0.0205-1.1427 0.0241-1.2333 8e-3 -0.0906-0.016-0.23983-4e-3 -0.33169 0.0265-0.0918 0.0306-0.23845 0.0446-0.32592 0.0298-0.0874-0.0142-0.65504 0.11229-1.2614 0.28108-0.60636 0.16889-1.1966 0.32586-1.3116 0.3491-0.11494 0.0236-0.41613 0.0836-0.66914 0.13447-0.71869 0.14427-1.4324 0.24376-1.6756 0.23367-0.1222-5e-3 -0.34382 0.0115-0.49253 0.036-0.14872 0.0248-0.63104-0.0103-1.0718-0.078-0.8509-0.13076-1.0122-0.12558-1.8296 0.0587-0.28491 0.0643-0.60293 0.13428-0.70674 0.15549-0.62953 0.12904-1.2822 0.28296-1.9659 0.46353-0.42858 0.11322-0.92715 0.244-1.108 0.29055-0.18083 0.0465-1.0489 0.29425-1.9291 0.55043l-1.6004 0.46577-1.0911 0.9647c-0.60012 0.53057-1.2921 1.1449-1.5378 1.3652-0.55272 0.49567-2.4437 1.9485-2.7016 2.0756-0.10445 0.0515-0.2231 0.13403-0.26374 0.18327-0.125 0.15186-2.3326 1.4929-2.9939 1.8187-0.32915 0.16216-1.3453 0.59478-1.7976 0.76532-1.41 0.53167-2.9515 0.51626-3.1339-0.0314-0.30218-0.90692 2.6575-3.2211 5.9117-4.6223 0.30045-0.12945 0.98523-0.42452 1.5217-0.65592 0.53646-0.23134 2.11-0.81204 3.4967-1.2904l2.5214-0.86971 1.0127-0.97836c0.94147-0.90959 2.7699-2.6894 3.5883-3.493 0.19416-0.19064 0.34321-0.37607 0.33123-0.41205-0.0501-0.15021-0.48486-0.18301-0.7113-0.0536-0.18842 0.10768-0.2872 0.10516-0.52394-0.0133-0.28851-0.14431-0.30001-0.14252-1.045 0.16264-0.41433 0.16956-0.83567 0.3323-0.93628 0.36182-0.63422 0.18578-1.0607 0.34392-1.2741 0.47197-0.1721 0.10327-0.29697 0.12558-0.42121 0.0751-0.12342-0.0502-0.41208 4.4e-4 -0.9593 0.16807-0.43051 0.13192-0.88983 0.26002-1.0207 0.28465-0.13081 0.025-0.48083 0.0992-0.77766 0.16591-0.29684 0.0667-0.8364 0.13484-1.1991 0.15099-0.58455 0.0265-0.66663 8e-3 -0.72336-0.16221-0.0684-0.20529-0.0245-0.27596 0.40656-0.6547 0.29191-0.25649 1.09-0.61234 1.1266-0.50235 0.0116 0.0358-0.10903 0.11387-0.2687 0.17385-0.39614 0.14872-1.0334 0.59846-1.1036 0.77881-0.0459 0.11785-0.0228 0.15356 0.1141 0.17683 0.44198 0.075 1.4079-0.10109 3.3738-0.61496l0.76233-0.19929 0.2903-0.59218c0.30061-0.61327 0.32693-0.71537 0.16396-0.6365-0.18664 0.0904-0.30344 0.0937-0.3318 8e-3 -0.0172-0.053 0.0482-0.0861 0.17196-0.0866 0.32743-1e-3 0.44396-0.0831 0.77828-0.54529 0.25727-0.35569 0.32212-0.40875 0.33943-0.27773 0.0116 0.0891-0.0488 0.23203-0.13465 0.31763-0.0859 0.0856-0.11678 0.16491-0.0688 0.17623 0.048 0.0113 0.18102-0.14242 0.29565-0.34166 0.2194-0.38133 0.24527-0.52154 0.0696-0.37714-0.24609 0.20229-0.10735-0.0303 0.20515-0.34374 0.32459-0.32568 0.55019-0.46948 0.58283-0.3715 0.0367 0.10986-0.0663 0.4967-0.2629 0.98838-0.11684 0.29218-0.19931 0.57065-0.18326 0.61884 0.0164 0.0482-0.0259 0.10593-0.0933 0.12837-0.12022 0.0401-0.17911 0.39325-0.10345 0.62035 0.0521 0.15618 0.33386 0.0509 0.69323-0.25912 0.33703-0.29068 0.31159-0.40051-0.089-0.38354-0.15353 6e-3 -0.2894-0.0191-0.30199-0.0569-0.031-0.0933 0.0356-0.10735 0.47938-0.10134l0.38099 5e-3 0.58261-0.72902c0.32041-0.40095 0.61604-0.83696 0.65691-0.96893 0.074-0.23901 0.0724-0.24039-0.40594-0.36199-1.7455-0.44364-2.0442-1.5566-0.84061-3.1313 0.55656-0.72814 2.2129-2.3113 2.7619-2.6399 0.0657-0.0393 0.34483-0.22626 0.62016-0.41537 1.1155-0.76611 2.651-1.6204 3.9068-2.1737 0.25679-0.11317 0.63796-0.29499 0.84704-0.40404 0.59264-0.30926 1.3177-0.57777 3.6145-1.3386 1.1768-0.38997 2.4314-0.75941 2.8036-0.82605 0.3705-0.0667 0.97081-0.19329 1.3339-0.28213 0.36308-0.0888 0.72355-0.15198 0.80106-0.14035 0.0776 0.0117 0.51431-0.0333 0.97063-0.10012 0.57794-0.0842 0.84092-0.0877 0.86668-0.0104 0.0233 0.0698-0.0524 0.1408-0.20399 0.19128-0.19882 0.0663-0.23006 0.11304-0.17859 0.26753 0.0887 0.26619-0.0944 0.4306-0.98622 0.88571-0.38299 0.19549-0.3511 0.0178 0.0343-0.19081 0.7146-0.38691 0.94591-0.71731 0.48438-0.69193-0.30551 0.0168-2.6083 1.7127-3.8516 2.8366-0.35836 0.32394-0.85289 0.76818-1.099 0.98723-0.66106 0.58848-2.26 2.0998-2.4084 2.2764-0.0708 0.0842-0.68261 0.7204-1.3596 1.4137-2.2522 2.3062-2.7521 2.8453-2.6747 2.884 0.0215 0.0108 0.34411-0.0566 0.71682-0.14883 0.57923-0.14402 0.69339-0.19655 0.78673-0.36196 0.0842-0.14932 0.14162-0.18089 0.25129-0.13822 0.10986 0.0428 0.15702 0.0158 0.2077-0.11822 0.0576-0.15241 0.0506-0.16141-0.0575-0.074-0.18424 0.14909-0.19608-0.0239-0.0172-0.25024 0.15957-0.20178 0.4065-0.25517 0.45849-0.0991 0.0153 0.0476-0.0314 0.20695-0.1051 0.35421-0.0736 0.14724-0.12842 0.28415-0.12173 0.30424 7e-3 0.02 0.2109-0.0302 0.45396-0.11072 0.32586-0.10854 0.45164-0.11764 0.47939-0.0343 0.0284 0.0852-0.0491 0.13125-0.31665 0.18803-0.58404 0.124-0.81551 0.2242-0.8977 0.38849-0.0683 0.13653 5e-3 0.1243 0.58319-0.0982 0.36366-0.13981 0.68814-0.26374 0.72107-0.27535 0.0328-0.0121 0.0358-0.0934 7e-3 -0.18178-0.0346-0.10376-3.5e-4 -0.17848 0.0977-0.21104 0.083-0.0277 0.32176-0.30595 0.53022-0.61834 0.24604-0.36865 0.41567-0.54966 0.48342-0.51581 0.0679 0.0339 0.0881 0.11934 0.0582 0.24381-0.0801 0.33233 0.0712 0.16803 0.29933-0.32508 0.24563-0.53079 0.3493-0.61247 0.44161-0.34793 0.0623 0.17732 0.0632 0.17729 0.12624-0.0198 0.28169-0.88618 0.77532-1.1806 0.69381-0.41385-0.0254 0.23817-0.13592 0.35261-0.18845 0.19497-0.0153-0.0471-0.0135-0.17313 4e-3 -0.28007 0.0788-0.46023-0.32149 0.34254-0.51705 1.0367-0.11992 0.42566-0.1168 0.44052 0.0788 0.37535 0.1013-0.0337 0.16802-0.1774 0.19486-0.41958 0.0449-0.40578 0.16169-0.54867 0.14627-0.17909-0.0167 0.40113 0.0173 0.41433 0.51568 0.20025 0.34808-0.14947 0.52323-0.28126 0.67982-0.51135 0.30374-0.44629 0.79129-1.4968 0.75127-1.6186-0.0556-0.16925-0.51527-0.58364-0.87187-0.78591-0.5504-0.31222-0.46641-0.41788 0.57974-0.72925l0.89962-0.26781-0.0356-0.24633c-0.0433-0.29695 0.12327-0.54265 0.30548-0.45152 0.0918 0.046 0.11166 0.1363 0.0797 0.36156-0.0235 0.16519-7e-3 0.32976 0.0356 0.36574 0.0888 0.0741 1.6824-0.5244 2.5359-0.95244 0.74274-0.37244 1.9718-0.84202 2.0446-0.78118 0.0338 0.0281-0.11947 0.1389-0.3405 0.24609-0.53043 0.25717-0.7446 0.36279-1.474 0.72702-0.33664 0.16814-1.1444 0.50887-1.795 0.75723l-1.1829 0.45158-0.031 0.51568c-0.04 0.66389-0.017 0.87621 0.17421 1.6142l0.1575 0.60791 0.49304-0.22551c0.68059-0.31119 0.6871-0.31379 1.0534-0.41857 0.31825-0.091 0.63814-0.0747 0.58588 0.0299-0.0143 0.0288-1.0838 0.42849-2.3766 0.88821-1.2927 0.45972-2.6322 0.95744-2.9765 1.106-0.34435 0.14859-0.8335 0.34066-1.087 0.42691-0.2534 0.0865-0.45371 0.17835-0.44493 0.20473 9e-3 0.0263-0.0833 0.0842-0.20462 0.12857-0.12123 0.0446-0.35703 0.18493-0.52372 0.31259-0.19656 0.15046-0.28688 0.19036-0.25695 0.1135 0.034-0.0872-0.0529-0.0832-0.32657 0.0148-0.42392 0.15174-0.70641 0.33708-0.67174 0.44112 0.013 0.0389 0.11717-1e-3 0.23154-0.0897 0.11438-0.0883 0.3139-0.18247 0.44339-0.20937l0.2354-0.0489-0.1626 0.18156c-0.0928 0.10371-0.40421 0.26736-0.72591 0.38161-0.30996 0.10966-0.59148 0.23375-0.62589 0.27505-0.12675 0.15182-1.5476 1.0201-2.1616 1.321-0.61475 0.30127-1.0074 0.41217-1.5378 0.4347-0.19586 9e-3 -0.34075 0.089-0.60962 0.3393-0.43267 0.40289-0.45674 0.48733-0.18175 0.63724 0.21045 0.11474 1.206 1.1767 1.2628 1.347 0.036 0.10834 0.72159 0.69377 1.1448 0.97768 0.22508 0.15099 0.42128 0.20524 0.64562 0.17849 0.17727-0.021 0.38023-0.0453 0.45106-0.0537 0.0708-9e-3 0.26119-0.0396 0.42302-0.0697 0.16187-0.0297 0.39152-0.0639 0.51049-0.0749 0.25185-0.0243 0.63825-0.0796 0.93695-0.13401 0.66431-0.12169 3.4793-0.38564 3.5871-0.33628 0.0549 0.0252 0.19524 0.014 0.31158-0.0246 0.11633-0.0388 0.24504-0.0537 0.28602-0.0332 0.041 0.0205 0.13977 0.0256 0.21953 0.0116 0.0797-0.0142 0.31593-0.0554 0.5249-0.0909 0.20891-0.036 0.51576-0.10933 0.6819-0.16313 0.16598-0.0543 0.31207-0.0678 0.3243-0.0311 0.0127 0.0367-0.016 0.0796-0.0629 0.0952-0.17866 0.0596 0.0687 0.14467 0.33471 0.11521 0.15323-0.0173 0.32128-0.0215 0.37329-0.01 0.052 0.0114 0.15201 0.0102 0.22223-3e-3 0.0702-0.0127 0.31054-0.0168 0.53406-9e-3 0.22353 8e-3 0.49613 2e-3 0.60575-0.013 0.10968-0.0147 0.37251-0.01 0.5842 0.0123 0.21167 0.0218 0.6464 0.0412 0.96605 0.043 0.62982 4e-3 1.4461 0.0495 2.068 0.11623 0.21579 0.0231 0.42935 0.0297 0.47462 0.0147 0.0452-0.015 0.54963 0.0209 1.1209 0.08 0.57121 0.0591 1.0785 0.10681 1.1274 0.10603 0.0489-3.9e-4 0.17876-3e-3 0.28876-4e-3 0.22651-3e-3 0.29976 0.0922 0.11783 0.15285-0.0662 0.0221-0.13182 6e-3 -0.14566-0.0354zm-34.669 9.2461c0.31601-0.15642 0.72623-0.37158 0.9116-0.47816 0.18538-0.10651 0.42224-0.23935 0.5264-0.29498 0.59443-0.31769 2.2262-1.4041 2.7208-1.8114 0.14441-0.11896 0.26923-0.19637 0.27731-0.17208 7e-3 0.0244 0.0503 3.4e-4 0.0939-0.0529 0.0435-0.0535 0.096-0.10683 0.11668-0.11858 0.0205-0.0123 0.12521-0.0974 0.23241-0.19037 0.1072-0.0929 0.21337-0.17512 0.23591-0.18263 0.0753-0.0251 1.5296-1.2422 1.9442-1.627 0.5991-0.55613 0.85697-0.79003 1.1479-1.0412 0.31394-0.27109 0.30997-0.3744-8e-3 -0.21383-0.1279 0.0646-0.26191 0.0925-0.29748 0.0631-0.0357-0.0298-0.0864-0.0285-0.11271 3e-3 -0.0263 0.0316-0.90575 0.36672-1.9544 0.745-1.8405 0.66394-2.7587 1.013-3.8362 1.4585-1.1634 0.48102-2.3617 1.0684-2.8078 1.3762-0.19551 0.13492-0.45793 0.29942-0.58316 0.36549-0.45544 0.2404-1.5968 1.1425-2.0128 1.5909-0.50707 0.54664-0.79532 1.1578-0.6233 1.3216 0.11706 0.11139 0.77111 0.2272 1.143 0.20234 0.68852-0.046 1.8213-0.41621 2.8859-0.94312zm23.151-9.2626c-0.0311-0.0935-4.1965 0.3685-4.6324 0.51376-0.24886 0.0829 0.23314 0.15669 0.87706 0.13425 0.95737-0.0333 1.4226-0.0942 2.4905-0.32557 1.2567-0.27226 1.2797-0.27809 1.2649-0.32246zm-6.576 0.12547c-0.28716-0.24263-0.80636-0.78122-1.1538-1.1969-0.82161-0.98302-0.97689-1.1052-1.213-0.9547-0.10045 0.064-0.70334 0.62524-1.3398 1.2471-1.701 1.6621-2.8904 2.8066-3.08 2.9637-0.0919 0.0761-0.14844 0.14748-0.12568 0.15853 0.0227 0.0111 0.56961-0.13151 1.2152-0.31687 0.64556-0.18539 1.345-0.37616 1.5543-0.42398 0.34597-0.0791 0.62696-0.14927 2.1905-0.54731 0.43923-0.11179 1.5721-0.34524 2.1189-0.43658 0.11026-0.0189 0.22678-0.0205 0.25885-4e-3 0.032 0.0161 0.0669 0.0118 0.0775-9e-3 0.0105-0.0211-0.21579-0.2368-0.50293-0.47943zm-1.9416-3.0153c0.28193-0.27757 0.34258-0.38684 0.27353-0.49286-0.0777-0.11904-0.14292-0.1115-0.51921 0.06-0.23676 0.10799-0.49738 0.28087-0.57914 0.38424l-0.14866 0.18798 0.24107 0.13012c0.29891 0.16135 0.29225 0.1638 0.73241-0.26955zm3.2866-1.4266c0.72656-0.44322 1.0626-0.69473 1.0357-0.77527-0.0129-0.0379-0.0981-0.0235-0.19009 0.0321-0.092 0.0556-0.64258 0.26997-1.2237 0.47635s-1.0472 0.40458-1.0357 0.44039c0.0116 0.0358-0.0208 0.0554-0.0716 0.0434-0.10181-0.0242-0.55605 0.34603-0.6937 0.56526-0.2045 0.32573 1.1741-0.1692 2.1792-0.78227zm-4.8099 1.6347c-0.0421-0.035-0.13064-0.0458-0.1969-0.0236-0.0663 0.0221-0.0861 0.0688-0.0441 0.10396 0.0421 0.0351 0.13066 0.0458 0.19691 0.0236 0.0662-0.0221 0.0861-0.0688 0.0441-0.10395zm0.37711-0.26882c-0.0355-0.0177-0.10581 2e-3 -0.15618 0.0447-0.0555 0.0469-0.0301 0.0597 0.0647 0.0323 0.086-0.0244 0.12696-0.0595 0.0914-0.0774zm1.939-0.68135c0.0764-0.0954 0.06-0.10678-0.0866-0.0591-0.0996 0.0324-0.1691 0.0951-0.15437 0.13935 0.0336 0.10063 0.11883 0.0721 0.24098-0.0803zm-5.2093 1.5073c-0.0229-0.0689-0.0708-0.0904-0.1065-0.0476-0.0356 0.0427-0.0328 0.10445 7e-3 0.13702 0.10598 0.0885 0.14725 0.0516 0.10024-0.0894zm-0.30578-0.089c0.22329-0.3226 0.29202-0.47684 0.25937-0.58196-0.0316-0.10158-0.16325-0.0206-0.25074 0.15437-0.0455 0.0909-0.22222 0.29228-0.39276 0.4474-0.17052 0.15515-0.29858 0.31648-0.28455 0.35859 0.0518 0.15528 0.45863-0.0752 0.66868-0.37844zm2.3328-0.67323c-0.21208-0.0717-0.3318-0.0501-0.50315 0.0909-0.21787 0.17908-0.0565 0.23233 0.31768 0.10487 0.35232-0.11947 0.36607-0.13462 0.18548-0.19567zm1.7435-0.61442c0.0568-0.0913 0.10878-0.11251 0.16339-0.0671 0.0441 0.0368 0.20449 0.0254 0.35651-0.0252 0.28353-0.0944 0.3015-0.18194 0.12297-0.59836-0.0323-0.0749-0.0126-0.14179 0.0438-0.14849 0.0562-7e-3 0.0891-0.0572 0.0731-0.11223-0.0165-0.0549 0.0344-0.18593 0.1122-0.29083 0.11171-0.15064 0.114-0.20786 0.0107-0.27205-0.0719-0.0446-0.15028-0.0578-0.17424-0.0291-0.0239 0.0286-0.27861 0.0529-0.56594 0.0537-0.28729 7.9e-4 -0.57192 0.0181-0.63249 0.0383-0.28104 0.0936-0.87364 1.7626-0.68248 1.9222 0.10629 0.0887 1.0634-0.29572 1.1724-0.47083zm2.3574-1.1198c0.33378-0.33967 0.56895-0.63552 0.5226-0.65744-0.0464-0.022-0.27152 5.8e-4 -0.50038 0.0505-0.22886 0.0497-0.54266 0.10557-0.69739 0.12393-0.33196 0.0396-0.4856 0.25498-0.56748 0.79563-0.0738 0.48689-0.0401 0.53007 0.31931 0.41031 0.21829-0.0727 0.50471-0.29701 0.92332-0.723zm1.7053-0.37673c0.8262-0.32587 1.3515-0.63103 1.3085-0.76019-0.0362-0.10874-0.15839-0.0933-0.98485 0.12442l-0.82041 0.21616-0.44585 0.46982c-0.24521 0.25841-0.44008 0.48711-0.43304 0.50825 7e-3 0.0211 0.12424-0.0188 0.26043-0.0888 0.13618-0.0701 0.63807-0.28132 1.1153-0.46951zm-5.5401 1.6174c0.0349-0.16229 0.044-0.30481 0.0202-0.31672-0.0238-0.0119-0.14989 0.11798-0.28021 0.28848-0.17991 0.23553-0.20485 0.31809-0.10368 0.34317 0.22433 0.0557 0.29759-8e-3 0.36369-0.31493zm9.4981-3.66c0.0477-0.0954 0.0672-0.18314 0.0433-0.19504-0.0793-0.0397-0.26263 0.15675-0.26847 0.28756-8e-3 0.17327 0.118 0.12161 0.22507-0.0926zm0.81423-0.19377c8e-3 -0.0396-2e-3 -0.20699-0.0222-0.37188l-0.0377-0.2998-0.18576 0.40151c-0.10217 0.22084-0.18041 0.41758-0.17387 0.43721 0.0204 0.0614 0.4032-0.0911 0.41941-0.16704zm3.2546-1.5964c-0.11848-0.27895-0.18159-0.49914-0.1402-0.48936 0.0414 0.01 0.0658-0.0893 0.0544-0.22006-0.0119-0.13076-0.0268-0.31621-0.0339-0.412-0.0129-0.17174-0.0141-0.17141-0.0858 0.0233-0.0401 0.10862-0.0485 0.27205-0.0189 0.36325 0.0331 0.10171 0.019 0.13754-0.0361 0.0927-0.0581-0.0471-0.23332 0.22509-0.49364 0.76686l-0.40363 0.84001 1.373-0.45748zm-8.3517 2.7686c0.23943-0.25871 0.68172-0.72735 0.98283-1.0414 0.30112-0.31406 0.80785-0.84423 1.1261-1.1782 2.3248-2.4397 4.4205-4.4167 6.3656-6.0052 0.75613-0.61752 2.2196-1.7063 2.3536-1.7509 0.0594-0.0198 0.13251-0.0989 0.16239-0.17564 0.0442-0.11348-0.0383-0.12771-0.43852-0.0767-1.412 0.18026-2.0379 0.32148-3.9226 0.88487-0.64724 0.19354-1.2142 0.36009-1.2599 0.37015-0.26447 0.0584-3.3932 1.3652-3.7757 1.577-0.0749 0.0414-0.32675 0.16545-0.55996 0.27573-0.6409 0.30293-1.6195 0.85868-2.7766 1.5768-2.1612 1.3413-4.0613 3.1095-4.5658 4.2489-0.28159 0.63594-0.14207 1.2629 0.36304 1.6315 0.22035 0.16081 1.1257 0.43492 1.2718 0.38507 0.0325-0.011 0.26329-0.41207 0.5131-0.89119 0.4994-0.9578 0.76498-1.3182 1.0391-1.41 0.26857-0.09 0.30403 0.16054 0.0826 0.58698-0.10425 0.20116-0.20386 0.32278-0.22134 0.27029-0.0171-0.0525 0.0363-0.22265 0.11942-0.37813l0.15123-0.28268-0.18378 0.118c-0.10106 0.065-0.2309 0.1344-0.28855 0.15422-0.0576 0.0199-0.0745 0.0613-0.0377 0.0921 0.037 0.0307-0.0499 0.27528-0.19302 0.54325-0.31745 0.59465-0.60653 1.2554-0.44246 1.0113 0.0656-0.0976 0.25856-0.39729 0.42871-0.66589s0.34056-0.47277 0.37869-0.45371c0.0697 0.035-0.30502 0.7699-0.56551 1.109-0.0771 0.10032-0.13085 0.20993-0.11961 0.24367 0.0243 0.0727 0.3552 0.09 0.94512 0.0495l0.42799-0.0293 0.241-0.56431c0.13255-0.31037 0.28151-0.56775 0.33102-0.57198 0.0494-5e-3 0.0699-0.0379 0.0453-0.075-0.067-0.10077 0.73384-1.8579 0.86699-1.9023 0.17222-0.0574 0.20236 0.1443 0.0595 0.39678-0.11062 0.19529-0.32142 0.6681-0.98887 2.2181-0.0905 0.21029-0.13123 0.39918-0.0904 0.41976 0.0714 0.0359 1.2752-0.11523 1.5882-0.19948 0.0832-0.0228 0.34733-0.2524 0.58675-0.51113zm8.097-4.5173c0.0955-0.27887 0.1482-0.51977 0.11714-0.53531-0.0874-0.0437-1.1066 0.15719-1.1676 0.23023-0.0297 0.0356 0.0645 0.13743 0.20935 0.2262 0.14491 0.0888 0.34809 0.25901 0.45152 0.37832 0.10341 0.11931 0.19435 0.21483 0.20201 0.21227 8e-3 -2e-3 0.092-0.2328 0.18753-0.51169zm0.37185 9.9537c-0.11037-0.0922-0.0662-0.1342 0.13512-0.12881 0.15254 4e-3 0.15957 0.0161 0.0583 0.0994-0.0634 0.052-0.15039 0.0654-0.1934 0.0294zm-17.753-2.0795c0.0714-0.0464 0.18027-0.0812 0.24193-0.0774 0.0617 4e-3 4e-3 0.0419-0.12977 0.0843-0.13317 0.0423-0.18358 0.0393-0.11223-8e-3zm-2.3562 0.69579c0.0714-0.0464 0.18028-0.0812 0.24193-0.0774 0.0617 4e-3 4e-3 0.0419-0.12977 0.0843-0.13316 0.0423-0.18356 0.0393-0.11222-8e-3zm0.37465-0.1427c-0.0131-0.0394 0.0681-0.0967 0.18068-0.12714 0.26672-0.0721 0.30575 0.0449 0.044 0.13206-0.11046 0.0368-0.21163 0.0344-0.22475-5e-3zm0.51928-0.1825c0.0126-0.0534 0.0569-0.10824 0.0984-0.12209 0.0416-0.0135 0.0876 0.0109 0.10241 0.0551 0.0149 0.0442-0.0296 0.0991-0.0985 0.12208-0.0689 0.023-0.11492-1e-3 -0.1024-0.0551zm0.43732-0.16058c-0.0127-0.0367 0.0117-0.0783 0.0533-0.0922 0.0416-0.0134 0.10422-1e-3 0.13927 0.028 0.035 0.0292 0.011 0.0707-0.0533 0.0921-0.0643 0.0215-0.12699 9e-3 -0.13924-0.0279z" fill="#1c1918" stroke-width=".084667"/>
 </g>
</svg>
